# xmcd
#
# Track frame offsets: 
#        150
#        16452
#        33272
#        49264
#        64639
#        74217
#        93705
#        104075
#        119522
#        142045
#        154865
#        178865
#        190422
#        212837
#        223537
#        237962
#        255922
#        266627
#        284580
#
# Disc length: 3949 seconds
#
# Revision: 3
# Processed by: cddbd v1.5.2PL0 Copyright (c) Steve Scherf et al.
# Submitted via: ExactAudioCopy v0.99pb3
#
DISCID=340f6b13
DTITLE=Little Willie Littlefield - Yellow Boogie and Blues
DYEAR=1994
DGENRE=Blues
TTITLE0=Everyday I Have The Blues
TTITLE1=New Orleans Blues
TTITLE2=Goodmorning Judge
TTITLE3=The Last Date
TTITLE4=Do You Want To Boogie
TTITLE5=Georgia On My Mind
TTITLE6=Rancho Grande
TTITLE7=Lowdown Shame
TTITLE8=Me And My Bobby McGee
TTITLE9=Pinetop's Boogie Woogie
TTITLE10=Stormy Monday Blues
TTITLE11=Rocking Chair Boogie
TTITLE12=Chief And Job Blues
TTITLE13=Rockin' The Blues
TTITLE14=Gonna Tell My Mama
TTITLE15=Lucky Old Sun
TTITLE16=Trembling
TTITLE17=Wampie Blues
TTITLE18=Those Kansas City Nights
EXTD=
EXTT0=
EXTT1=
EXTT2=
EXTT3=
EXTT4=
EXTT5=
EXTT6=
EXTT7=
EXTT8=
EXTT9=
EXTT10=
EXTT11=
EXTT12=
EXTT13=
EXTT14=
EXTT15=
EXTT16=
EXTT17=
EXTT18=
PLAYORDER=
